HIERARCHY
ROOT ui
{
	 OFFSET 0 0 0
	 CHANNELS 3 XPosition YPosition Z Position
	 EndSite
	 {
	 OFFSET 0 -1 0
	 }
}
ROOT li
{
	 OFFSET 0 0 0
	 CHANNELS 3 XPosition YPosition Z Position
	 EndSite
	 {
	 OFFSET 0 -1 0
	 }
}
ROOT ul
{
	 OFFSET 0 0 0
	 CHANNELS 3 XPosition YPosition Z Position
	 EndSite
	 {
	 OFFSET 0 -1 0
	 }
}
ROOT ll
{
	 OFFSET 0 0 0
	 CHANNELS 3 XPosition YPosition Z Position
	 EndSite
	 {
	 OFFSET 0 -1 0
	 }
}
ROOT tt
{
	 OFFSET 0 0 0
	 CHANNELS 3 XPosition YPosition Z Position
	 EndSite
	 {
	 OFFSET 0 -1 0
	 }
}
ROOT tb
{
	 OFFSET 0 0 0
	 CHANNELS 3 XPosition YPosition Z Position
	 EndSite
	 {
	 OFFSET 0 -1 0
	 }
}
ROOT td
{
	 OFFSET 0 0 0
	 CHANNELS 3 XPosition YPosition Z Position
	 EndSite
	 {
	 OFFSET 0 -1 0
	 }
}
ROOT v
{
	 OFFSET 0 0 0
	 CHANNELS 3 XPosition YPosition Z Position
	 EndSite
	 {
	 OFFSET 0 -1 0
	 }
}
ROOT bn
{
	 OFFSET 0 0 0
	 CHANNELS 3 XPosition YPosition Z Position
	 EndSite
	 {
	 OFFSET 0 -1 0
	 }
}
MOTION
Frames: 10
Frame Time: 0.002
-0.0333824348449707	0.0023582379817962645	0		0.5733047485351562	-2.579343994140625	0		-1.25057421875	-0.1937645721435547	0		-0.5866018676757813	-2.84589697265625	0		1.532638427734375	-1.154507568359375	0		3.165172119140625	-0.9495973510742187	0		4.56120703125	-0.43677734375	0		5.93848193359375	0.49263006591796876	0		-0.2094063720703125	5.858458984375	0		
0.03898815155029297	-0.004354086875915528	0		0.571686767578125	-2.5812548828125	0		-1.2528671875	-0.18559371948242187	0		-0.6262171630859374	-2.846833740234375	0		1.4908677978515625	-1.1234498291015624	0		3.15168505859375	-0.9482987670898437	0		4.54966259765625	-0.438572998046875	0		5.939013671875	0.4924929504394531	0		-0.07719610595703125	5.877291015625	0		
-0.022528345108032227	-0.007803482055664062	0		0.5580939331054687	-2.584906005859375	0		-1.2441151123046874	-0.17872975158691407	0		-0.5693336791992187	-2.872189697265625	0		1.4890604248046875	-1.097412353515625	0		3.1433427734375	-0.9441622314453125	0		4.54189306640625	-0.4525025634765625	0		5.9411494140625	0.4732717590332031	0		-0.20791371154785157	5.85855224609375	0		
0.04330315017700195	-0.0014254900217056275	0		0.5758787231445313	-2.576362548828125	0		-1.2393941650390625	-0.17580307006835938	0		-0.6016420288085937	-2.86637255859375	0		1.4415323486328124	-1.062277587890625	0		3.128291259765625	-0.9308912353515625	0		4.54935693359375	-0.4598401184082031	0		5.95401318359375	0.4807593994140625	0		-0.07653572845458985	5.8783271484375	0		
-0.027840072631835938	0.00530140495300293	0		0.5765067749023437	-2.576431396484375	0		-1.2373922119140626	-0.16384197998046876	0		-0.5702059326171875	-2.87416796875	0		1.41101025390625	-1.0295931396484375	0		3.11500146484375	-0.9296968383789063	0		4.543783203125	-0.4708857116699219	0		5.93396875	0.4900332946777344	0		-0.07563488006591797	5.87827880859375	0		
0.04477156066894531	-0.0015629249811172485	0		0.5761124267578125	-2.57950732421875	0		-1.236639892578125	-0.1638888702392578	0		-0.6182974243164062	-2.864024658203125	0		1.4100589599609374	-1.0166743774414062	0		3.126578857421875	-0.9361454467773438	0		4.54510498046875	-0.48812646484375	0		5.951314453125	0.4723544921875	0		-0.07567523193359375	5.87922119140625	0		
-0.02936548614501953	0.002177565097808838	0		0.5747836303710937	-2.58158935546875	0		-1.23585400390625	-0.1639716796875	0		-0.6005902709960937	-2.864545654296875	0		1.3723045654296875	-0.9968685302734375	0		3.072434814453125	-0.93198486328125	0		4.53861181640625	-0.4991898498535156	0		5.936123046875	0.4724724731445312	0		-0.20717987060546875	5.862384765625	0		
-0.021880678176879883	-0.011138880729675293	0		0.5365196533203125	-2.58178271484375	0		-1.308901611328125	-0.15725592041015626	0		-0.6102171020507813	-2.87942626953125	0		1.33289697265625	-0.9640409545898437	0		3.05247705078125	-0.9216865844726563	0		4.53313818359375	-0.5102916564941407	0		5.94494091796875	0.4719871826171875	0		-0.0747273712158203	5.8809853515625	0		
-0.014892571449279786	-0.004466195106506348	0		0.590172119140625	-2.58728369140625	0		-1.21889208984375	-0.15062039184570314	0		-0.60430712890625	-2.873717529296875	0		1.35018701171875	-0.9446458129882812	0		3.0652724609375	-0.9222181396484375	0		4.51775146484375	-0.5181532592773438	0		5.9419658203125	0.4797963562011719	0		-0.05760745620727539	5.88841064453125	0		
0.0011417059898376465	0.0039559249877929685	0		0.5822551879882812	-2.575274169921875	0		-1.227727783203125	-0.13656338500976561	0		-0.5844847412109375	-2.872385009765625	0		1.3166468505859374	-0.9180045166015625	0		3.041481201171875	-0.9058441162109375	0		4.5243349609375	-0.5275601806640625	0		5.94658740234375	0.47142050170898436	0		-0.07388510894775391	5.8816328125	0		
